<svg id="Component_1_1" data-name="Component 1 – 1" xmlns="http://www.w3.org/2000/svg" width="50.95" height="44.05" viewBox="0 0 50.95 44.05">
  <path id="Vector-1" d="M15.275,22.075H3.55c.2-11.675,2.5-13.6,9.675-17.85a1.749,1.749,0,0,0-1.8-3c-8.45,5-11.4,8.05-11.4,22.6V37.3A7.73,7.73,0,0,0,7.75,45.025h7.5A7.56,7.56,0,0,0,22.975,37.3V29.8A7.525,7.525,0,0,0,15.275,22.075Z" transform="translate(27.975 -0.975)" fill="#0c8bfd" opacity="0.4"/>
  <path id="Vector" d="M16.225,22.075H4.5C4.7,10.4,7,8.475,14.175,4.225a1.749,1.749,0,1,0-1.8-3c-8.45,5-11.4,8.05-11.4,22.6V37.3A7.73,7.73,0,0,0,8.7,45.025h7.5A7.56,7.56,0,0,0,23.925,37.3V29.8A7.525,7.525,0,0,0,16.225,22.075Z" transform="translate(-0.975 -0.975)" fill="#0c8bfd"/>
</svg>
